<svg xmlns="http://www.w3.org/2000/svg" xmlns:xlink="http://www.w3.org/1999/xlink" width="200" zoomAndPan="magnify" viewBox="0 0 150 149.999998" height="200" preserveAspectRatio="xMidYMid meet" version="1.0"><defs><clipPath id="3fe2805bc3"><path d="M 2.078125 2.351562 L 147.578125 2.351562 L 147.578125 147.851562 L 2.078125 147.851562 Z M 2.078125 2.351562 " clip-rule="nonzero"/></clipPath><clipPath id="41adcb119d"><path d="M 57 128 L 69 128 L 69 139.886719 L 57 139.886719 Z M 57 128 " clip-rule="nonzero"/></clipPath><clipPath id="dce4cb7084"><path d="M 57 51.386719 L 69 51.386719 L 69 63 L 57 63 Z M 57 51.386719 " clip-rule="nonzero"/></clipPath><clipPath id="ecc5fc43a6"><path d="M 81 51.386719 L 93 51.386719 L 93 63 L 81 63 Z M 81 51.386719 " clip-rule="nonzero"/></clipPath><clipPath id="5891a6dca9"><path d="M 30.796875 77 L 43 77 L 43 90 L 30.796875 90 Z M 30.796875 77 " clip-rule="nonzero"/></clipPath><clipPath id="5c0b3a4b1a"><path d="M 107 77 L 119.296875 77 L 119.296875 90 L 107 90 Z M 107 77 " clip-rule="nonzero"/></clipPath><clipPath id="40784ab88b"><path d="M 107 102 L 119.296875 102 L 119.296875 114 L 107 114 Z M 107 102 " clip-rule="nonzero"/></clipPath></defs><rect x="-15" width="180" fill="#ffffff" y="-15" height="179.999997" fill-opacity="1"/><rect x="-15" width="180" fill="#ffffff" y="-15" height="179.999997" fill-opacity="1"/><g clip-path="url(#3fe2805bc3)"><path fill="#0096c7" d="M 147.132812 74.019531 L 76.042969 2.929688 C 75.46875 2.351562 74.527344 2.351562 73.949219 2.929688 L 35.007812 41.871094 L 35.007812 21.75 C 35.007812 20.933594 34.34375 20.269531 33.527344 20.269531 C 32.710938 20.269531 32.046875 20.933594 32.046875 21.75 L 32.046875 44.835938 L 2.859375 74.023438 C 2.28125 74.601562 2.28125 75.539062 2.859375 76.117188 C 3.4375 76.695312 4.375 76.695312 4.953125 76.117188 L 20.195312 60.875 L 20.195312 146.15625 C 20.195312 146.976562 20.859375 147.640625 21.675781 147.640625 L 128.308594 147.640625 C 129.128906 147.640625 129.792969 146.976562 129.792969 146.15625 L 129.792969 60.871094 L 145.035156 76.113281 C 145.328125 76.40625 145.707031 76.550781 146.085938 76.550781 C 146.464844 76.550781 146.84375 76.40625 147.132812 76.117188 C 147.710938 75.535156 147.710938 74.601562 147.132812 74.019531 Z M 126.832031 144.675781 L 23.160156 144.675781 L 23.160156 57.910156 L 74.996094 6.074219 L 126.832031 57.910156 Z M 126.832031 144.675781 " fill-opacity="1" fill-rule="nonzero"/></g><path fill="#03045e" d="M 88.78125 118.777344 C 88.753906 118.777344 88.726562 118.777344 88.695312 118.777344 L 85.738281 118.777344 L 85.738281 122.578125 C 86.226562 122.445312 86.734375 122.375 87.261719 122.375 C 87.789062 122.375 88.296875 122.445312 88.78125 122.578125 L 88.78125 118.777344 " fill-opacity="1" fill-rule="nonzero"/><path fill="#03045e" d="M 87.261719 122.375 C 86.734375 122.375 86.226562 122.445312 85.742188 122.578125 C 84.777344 122.847656 83.914062 123.359375 83.234375 124.042969 C 82.203125 125.066406 81.5625 126.5 81.566406 128.070312 L 84.605469 128.070312 C 84.605469 127.332031 84.898438 126.675781 85.382812 126.191406 C 85.867188 125.710938 86.523438 125.414062 87.261719 125.414062 C 87.996094 125.414062 88.652344 125.710938 89.136719 126.191406 C 89.621094 126.675781 89.914062 127.332031 89.914062 128.070312 C 89.914062 128.808594 89.621094 129.460938 89.136719 129.945312 C 88.652344 130.429688 87.996094 130.722656 87.261719 130.726562 C 86.523438 130.722656 85.867188 130.429688 85.382812 129.945312 C 84.898438 129.460938 84.605469 128.808594 84.605469 128.070312 L 81.566406 128.070312 C 81.5625 129.636719 82.203125 131.070312 83.234375 132.097656 C 84.257812 133.125 85.691406 133.765625 87.257812 133.765625 C 87.257812 133.765625 87.257812 133.765625 87.261719 133.765625 C 88.828125 133.765625 90.261719 133.125 91.289062 132.097656 C 92.316406 131.070312 92.957031 129.636719 92.957031 128.070312 C 92.957031 126.503906 92.316406 125.070312 91.289062 124.042969 C 90.605469 123.359375 89.742188 122.847656 88.78125 122.578125 C 88.296875 122.445312 87.789062 122.375 87.261719 122.375 " fill-opacity="1" fill-rule="nonzero"/><path fill="#0096c7" d="M 61.214844 118.777344 L 61.214844 128.609375 C 61.703125 128.476562 62.210938 128.402344 62.738281 128.402344 C 63.265625 128.402344 63.773438 128.476562 64.257812 128.609375 L 64.257812 118.777344 L 61.300781 118.777344 C 61.296875 118.777344 61.296875 118.777344 61.296875 118.777344 C 61.269531 118.777344 61.242188 118.777344 61.214844 118.777344 " fill-opacity="1" fill-rule="nonzero"/><g clip-path="url(#41adcb119d)"><path fill="#0096c7" d="M 62.738281 128.402344 C 62.210938 128.402344 61.703125 128.476562 61.214844 128.609375 C 60.253906 128.875 59.390625 129.386719 58.710938 130.070312 C 57.683594 131.097656 57.039062 132.53125 57.042969 134.097656 L 60.082031 134.097656 C 60.082031 133.359375 60.375 132.707031 60.859375 132.222656 C 61.34375 131.738281 62 131.445312 62.738281 131.445312 C 63.476562 131.445312 64.128906 131.738281 64.613281 132.222656 C 65.097656 132.707031 65.390625 133.359375 65.394531 134.097656 C 65.390625 134.835938 65.097656 135.492188 64.613281 135.976562 C 64.128906 136.460938 63.476562 136.753906 62.738281 136.753906 C 62 136.753906 61.34375 136.460938 60.859375 135.976562 C 60.375 135.492188 60.082031 134.835938 60.082031 134.097656 L 57.042969 134.097656 C 57.039062 135.667969 57.683594 137.101562 58.710938 138.125 C 59.734375 139.152344 61.167969 139.792969 62.734375 139.792969 C 62.734375 139.792969 62.734375 139.792969 62.738281 139.792969 C 64.304688 139.792969 65.738281 139.15625 66.765625 138.125 C 67.792969 137.101562 68.433594 135.667969 68.433594 134.097656 C 68.433594 132.53125 67.792969 131.097656 66.765625 130.070312 C 66.082031 129.386719 65.21875 128.875 64.257812 128.609375 C 63.773438 128.476562 63.265625 128.402344 62.738281 128.402344 " fill-opacity="1" fill-rule="nonzero"/></g><path fill="#0096c7" d="M 76.519531 118.777344 L 73.476562 118.777344 L 73.476562 126.753906 C 73.964844 126.621094 74.472656 126.550781 75 126.550781 C 75.527344 126.550781 76.035156 126.621094 76.519531 126.753906 L 76.519531 118.777344 " fill-opacity="1" fill-rule="nonzero"/><path fill="#0096c7" d="M 75 126.550781 C 74.472656 126.550781 73.964844 126.621094 73.476562 126.753906 C 72.515625 127.023438 71.652344 127.535156 70.972656 128.21875 C 69.941406 129.242188 69.300781 130.675781 69.304688 132.246094 L 72.34375 132.246094 C 72.34375 131.507812 72.636719 130.851562 73.121094 130.367188 C 73.605469 129.886719 74.261719 129.589844 75 129.589844 C 75.734375 129.589844 76.390625 129.886719 76.875 130.367188 C 77.359375 130.851562 77.652344 131.507812 77.652344 132.246094 C 77.652344 132.984375 77.359375 133.636719 76.875 134.121094 C 76.390625 134.605469 75.734375 134.898438 75 134.898438 C 74.261719 134.898438 73.605469 134.605469 73.121094 134.121094 C 72.636719 133.636719 72.34375 132.984375 72.34375 132.246094 L 69.304688 132.246094 C 69.304688 133.8125 69.941406 135.246094 70.972656 136.273438 C 71.996094 137.300781 73.429688 137.941406 74.996094 137.941406 C 74.996094 137.941406 74.996094 137.941406 75 137.941406 C 76.566406 137.941406 78 137.300781 79.023438 136.273438 C 80.054688 135.246094 80.695312 133.8125 80.691406 132.246094 C 80.695312 130.675781 80.054688 129.242188 79.023438 128.21875 C 78.34375 127.535156 77.480469 127.023438 76.519531 126.753906 C 76.035156 126.621094 75.527344 126.550781 75 126.550781 " fill-opacity="1" fill-rule="nonzero"/><path fill="#03045e" d="M 61.214844 62.574219 L 61.214844 72.40625 C 61.246094 72.40625 61.273438 72.40625 61.300781 72.40625 L 64.257812 72.40625 L 64.257812 62.574219 C 63.773438 62.707031 63.261719 62.777344 62.738281 62.777344 C 62.734375 62.777344 62.734375 62.777344 62.734375 62.777344 C 62.210938 62.777344 61.699219 62.707031 61.214844 62.574219 " fill-opacity="1" fill-rule="nonzero"/><g clip-path="url(#dce4cb7084)"><path fill="#03045e" d="M 62.738281 51.386719 C 61.167969 51.386719 59.734375 52.027344 58.710938 53.054688 C 57.683594 54.082031 57.039062 55.515625 57.042969 57.082031 C 57.039062 58.652344 57.683594 60.085938 58.710938 61.109375 C 59.390625 61.792969 60.253906 62.308594 61.214844 62.574219 C 61.699219 62.707031 62.210938 62.777344 62.734375 62.777344 C 62.734375 62.777344 62.734375 62.777344 62.738281 62.777344 C 63.261719 62.777344 63.773438 62.707031 64.257812 62.574219 C 65.21875 62.308594 66.082031 61.792969 66.765625 61.109375 C 67.792969 60.085938 68.433594 58.652344 68.433594 57.082031 L 65.390625 57.082031 C 65.390625 57.820312 65.097656 58.476562 64.613281 58.960938 C 64.128906 59.445312 63.472656 59.738281 62.738281 59.738281 C 62 59.738281 61.34375 59.445312 60.859375 58.960938 C 60.375 58.476562 60.082031 57.820312 60.082031 57.082031 C 60.082031 56.34375 60.375 55.691406 60.859375 55.207031 C 61.34375 54.722656 62 54.429688 62.738281 54.429688 C 63.472656 54.429688 64.128906 54.722656 64.613281 55.207031 C 65.097656 55.691406 65.390625 56.34375 65.390625 57.082031 L 68.433594 57.082031 C 68.433594 55.515625 67.792969 54.082031 66.765625 53.054688 C 65.738281 52.027344 64.304688 51.386719 62.738281 51.386719 " fill-opacity="1" fill-rule="nonzero"/></g><path fill="#0096c7" d="M 85.738281 62.574219 L 85.738281 72.40625 L 88.695312 72.40625 C 88.699219 72.40625 88.699219 72.40625 88.699219 72.40625 C 88.726562 72.40625 88.753906 72.40625 88.78125 72.40625 L 88.78125 62.574219 C 88.296875 62.707031 87.785156 62.777344 87.261719 62.777344 C 87.257812 62.777344 87.257812 62.777344 87.257812 62.777344 C 86.734375 62.777344 86.222656 62.707031 85.738281 62.574219 " fill-opacity="1" fill-rule="nonzero"/><g clip-path="url(#ecc5fc43a6)"><path fill="#0096c7" d="M 87.261719 51.386719 C 85.691406 51.386719 84.257812 52.027344 83.234375 53.054688 C 82.203125 54.082031 81.5625 55.515625 81.566406 57.082031 C 81.5625 58.652344 82.203125 60.085938 83.234375 61.109375 C 83.914062 61.792969 84.777344 62.308594 85.738281 62.574219 C 86.222656 62.707031 86.734375 62.777344 87.257812 62.777344 C 87.257812 62.777344 87.257812 62.777344 87.261719 62.777344 C 87.785156 62.777344 88.296875 62.707031 88.78125 62.574219 C 89.742188 62.308594 90.605469 61.792969 91.289062 61.109375 C 92.316406 60.085938 92.957031 58.652344 92.957031 57.082031 L 89.914062 57.082031 C 89.914062 57.820312 89.621094 58.476562 89.136719 58.960938 C 88.652344 59.445312 87.996094 59.738281 87.261719 59.738281 C 86.523438 59.738281 85.867188 59.445312 85.382812 58.960938 C 84.898438 58.476562 84.605469 57.820312 84.605469 57.082031 C 84.605469 56.34375 84.898438 55.691406 85.382812 55.207031 C 85.867188 54.722656 86.523438 54.429688 87.261719 54.429688 C 87.996094 54.429688 88.652344 54.722656 89.136719 55.207031 C 89.621094 55.691406 89.914062 56.34375 89.914062 57.082031 L 92.957031 57.082031 C 92.957031 55.515625 92.316406 54.082031 91.289062 53.054688 C 90.261719 52.027344 88.828125 51.386719 87.261719 51.386719 " fill-opacity="1" fill-rule="nonzero"/></g><path fill="#0096c7" d="M 76.519531 68.601562 C 76.035156 68.738281 75.523438 68.808594 75 68.808594 C 74.996094 68.808594 74.996094 68.808594 74.996094 68.808594 C 74.472656 68.808594 73.960938 68.738281 73.480469 68.601562 L 73.480469 72.40625 L 76.519531 72.40625 L 76.519531 68.601562 " fill-opacity="1" fill-rule="nonzero"/><path fill="#0096c7" d="M 75 57.417969 C 73.429688 57.417969 71.996094 58.058594 70.972656 59.085938 C 69.941406 60.113281 69.300781 61.546875 69.304688 63.113281 C 69.304688 64.679688 69.941406 66.113281 70.972656 67.140625 C 71.652344 67.824219 72.515625 68.335938 73.476562 68.601562 C 73.960938 68.738281 74.472656 68.808594 74.996094 68.808594 C 74.996094 68.808594 74.996094 68.808594 75 68.808594 C 75.523438 68.808594 76.035156 68.738281 76.519531 68.601562 C 77.480469 68.335938 78.34375 67.824219 79.023438 67.140625 C 80.054688 66.113281 80.695312 64.679688 80.691406 63.113281 L 77.652344 63.113281 C 77.652344 63.851562 77.359375 64.503906 76.875 64.988281 C 76.390625 65.472656 75.734375 65.765625 74.996094 65.769531 C 74.257812 65.765625 73.605469 65.472656 73.121094 64.988281 C 72.636719 64.503906 72.34375 63.851562 72.34375 63.113281 C 72.34375 62.375 72.636719 61.71875 73.121094 61.234375 C 73.605469 60.753906 74.257812 60.457031 74.996094 60.457031 C 75.734375 60.457031 76.390625 60.753906 76.875 61.234375 C 77.359375 61.71875 77.652344 62.375 77.652344 63.113281 L 80.691406 63.113281 C 80.695312 61.542969 80.054688 60.113281 79.023438 59.085938 C 78 58.058594 76.566406 57.417969 75 57.417969 " fill-opacity="1" fill-rule="nonzero"/><path fill="#03045e" d="M 51.8125 106.332031 L 48.007812 106.332031 C 48.144531 106.816406 48.214844 107.328125 48.214844 107.851562 C 48.214844 108.378906 48.144531 108.886719 48.007812 109.371094 L 51.8125 109.371094 C 51.8125 109.34375 51.8125 109.316406 51.8125 109.289062 L 51.8125 106.332031 " fill-opacity="1" fill-rule="nonzero"/><path fill="#03045e" d="M 42.519531 110.507812 C 41.78125 110.507812 41.128906 110.214844 40.644531 109.730469 C 40.160156 109.246094 39.867188 108.589844 39.863281 107.851562 C 39.867188 107.113281 40.160156 106.460938 40.644531 105.976562 C 41.128906 105.492188 41.78125 105.199219 42.519531 105.199219 C 43.257812 105.199219 43.914062 105.492188 44.398438 105.976562 C 44.878906 106.460938 45.175781 107.117188 45.175781 107.851562 C 45.175781 108.589844 44.878906 109.246094 44.398438 109.730469 C 43.914062 110.214844 43.257812 110.507812 42.519531 110.507812 M 42.523438 102.15625 C 42.523438 102.15625 42.519531 102.15625 42.519531 102.15625 C 40.953125 102.15625 39.519531 102.796875 38.492188 103.824219 C 37.464844 104.851562 36.824219 106.285156 36.824219 107.851562 C 36.824219 109.421875 37.464844 110.855469 38.492188 111.878906 C 39.519531 112.90625 40.953125 113.546875 42.519531 113.546875 C 44.089844 113.546875 45.523438 112.910156 46.546875 111.878906 C 47.230469 111.199219 47.742188 110.335938 48.011719 109.371094 C 48.144531 108.886719 48.214844 108.378906 48.214844 107.851562 C 48.214844 107.328125 48.144531 106.816406 48.011719 106.332031 C 47.742188 105.371094 47.230469 104.507812 46.546875 103.828125 C 45.523438 102.796875 44.089844 102.15625 42.523438 102.15625 " fill-opacity="1" fill-rule="nonzero"/><path fill="#0096c7" d="M 51.8125 81.808594 L 41.980469 81.808594 C 42.113281 82.292969 42.1875 82.804688 42.183594 83.328125 C 42.183594 83.855469 42.113281 84.363281 41.980469 84.847656 L 51.8125 84.847656 L 51.8125 81.890625 C 51.8125 81.863281 51.8125 81.835938 51.8125 81.808594 " fill-opacity="1" fill-rule="nonzero"/><g clip-path="url(#5891a6dca9)"><path fill="#0096c7" d="M 36.492188 85.984375 C 35.753906 85.984375 35.097656 85.691406 34.613281 85.207031 C 34.128906 84.722656 33.835938 84.066406 33.835938 83.328125 C 33.835938 82.59375 34.128906 81.9375 34.613281 81.453125 C 35.097656 80.96875 35.753906 80.675781 36.492188 80.675781 C 37.226562 80.675781 37.882812 80.96875 38.367188 81.453125 C 38.851562 81.9375 39.144531 82.59375 39.144531 83.328125 C 39.144531 84.066406 38.851562 84.722656 38.367188 85.207031 C 37.882812 85.691406 37.226562 85.984375 36.492188 85.984375 M 36.492188 77.632812 C 34.921875 77.632812 33.488281 78.273438 32.464844 79.300781 C 31.433594 80.328125 30.792969 81.761719 30.796875 83.328125 C 30.796875 84.898438 31.433594 86.332031 32.464844 87.355469 C 33.488281 88.382812 34.921875 89.023438 36.488281 89.023438 C 36.488281 89.023438 36.488281 89.023438 36.492188 89.023438 C 38.058594 89.027344 39.492188 88.386719 40.515625 87.355469 C 41.203125 86.675781 41.714844 85.8125 41.980469 84.851562 C 42.113281 84.367188 42.1875 83.855469 42.1875 83.332031 C 42.1875 82.804688 42.113281 82.292969 41.980469 81.808594 C 41.714844 80.847656 41.203125 79.984375 40.515625 79.304688 C 39.492188 78.273438 38.058594 77.632812 36.492188 77.632812 " fill-opacity="1" fill-rule="nonzero"/></g><path fill="#0096c7" d="M 51.8125 94.070312 L 43.835938 94.070312 C 43.96875 94.554688 44.039062 95.066406 44.039062 95.589844 C 44.039062 96.117188 43.96875 96.625 43.835938 97.109375 L 51.8125 97.109375 L 51.8125 94.070312 " fill-opacity="1" fill-rule="nonzero"/><path fill="#0096c7" d="M 38.34375 98.246094 C 37.605469 98.246094 36.953125 97.953125 36.46875 97.46875 C 35.984375 96.984375 35.691406 96.328125 35.691406 95.589844 C 35.691406 94.855469 35.984375 94.199219 36.46875 93.714844 C 36.953125 93.230469 37.605469 92.9375 38.34375 92.9375 C 39.082031 92.9375 39.738281 93.230469 40.222656 93.714844 C 40.707031 94.199219 41 94.855469 41 95.589844 C 41 96.328125 40.707031 96.984375 40.222656 97.46875 C 39.738281 97.953125 39.082031 98.246094 38.34375 98.246094 M 38.347656 89.894531 C 38.347656 89.894531 38.34375 89.894531 38.34375 89.894531 C 36.777344 89.894531 35.34375 90.535156 34.316406 91.566406 C 33.289062 92.589844 32.648438 94.023438 32.648438 95.589844 C 32.648438 97.160156 33.289062 98.59375 34.316406 99.617188 C 35.34375 100.644531 36.773438 101.285156 38.339844 101.285156 C 38.34375 101.285156 38.34375 101.285156 38.34375 101.285156 C 39.914062 101.289062 41.347656 100.648438 42.371094 99.617188 C 43.054688 98.9375 43.566406 98.074219 43.835938 97.113281 C 43.96875 96.625 44.039062 96.117188 44.039062 95.589844 C 44.039062 95.066406 43.96875 94.554688 43.835938 94.070312 C 43.566406 93.109375 43.054688 92.246094 42.371094 91.566406 C 41.347656 90.535156 39.914062 89.894531 38.347656 89.894531 " fill-opacity="1" fill-rule="nonzero"/><path fill="#03045e" d="M 108.015625 81.808594 L 98.183594 81.808594 C 98.183594 81.835938 98.183594 81.863281 98.183594 81.890625 L 98.183594 84.851562 L 108.015625 84.851562 C 107.882812 84.363281 107.8125 83.855469 107.8125 83.328125 C 107.8125 82.804688 107.882812 82.292969 108.015625 81.808594 " fill-opacity="1" fill-rule="nonzero"/><g clip-path="url(#5c0b3a4b1a)"><path fill="#03045e" d="M 113.507812 85.984375 C 112.769531 85.984375 112.113281 85.691406 111.628906 85.207031 C 111.144531 84.722656 110.851562 84.066406 110.851562 83.328125 C 110.851562 82.589844 111.144531 81.9375 111.628906 81.453125 C 112.113281 80.96875 112.769531 80.675781 113.507812 80.675781 C 114.246094 80.675781 114.898438 80.96875 115.382812 81.453125 C 115.867188 81.9375 116.160156 82.589844 116.160156 83.328125 C 116.160156 84.066406 115.867188 84.722656 115.382812 85.207031 C 114.898438 85.691406 114.246094 85.984375 113.507812 85.984375 M 113.507812 77.632812 C 111.9375 77.632812 110.503906 78.273438 109.480469 79.300781 C 108.796875 79.984375 108.28125 80.847656 108.015625 81.808594 C 107.882812 82.292969 107.8125 82.804688 107.8125 83.328125 C 107.8125 83.855469 107.882812 84.363281 108.015625 84.847656 C 108.28125 85.8125 108.796875 86.675781 109.480469 87.355469 C 110.503906 88.382812 111.9375 89.023438 113.503906 89.023438 C 113.503906 89.023438 113.503906 89.023438 113.507812 89.023438 C 115.074219 89.023438 116.507812 88.382812 117.535156 87.355469 C 118.5625 86.332031 119.203125 84.898438 119.203125 83.328125 C 119.203125 81.761719 118.5625 80.328125 117.535156 79.300781 C 116.507812 78.273438 115.074219 77.632812 113.507812 77.632812 " fill-opacity="1" fill-rule="nonzero"/></g><path fill="#0096c7" d="M 108.015625 106.332031 L 98.183594 106.332031 L 98.183594 109.289062 C 98.183594 109.316406 98.183594 109.34375 98.183594 109.371094 L 108.015625 109.371094 C 107.882812 108.886719 107.8125 108.378906 107.8125 107.851562 C 107.8125 107.328125 107.882812 106.816406 108.015625 106.332031 " fill-opacity="1" fill-rule="nonzero"/><g clip-path="url(#40784ab88b)"><path fill="#0096c7" d="M 113.507812 110.507812 C 112.769531 110.507812 112.113281 110.214844 111.628906 109.730469 C 111.144531 109.246094 110.851562 108.589844 110.851562 107.851562 C 110.851562 107.113281 111.144531 106.460938 111.628906 105.976562 C 112.113281 105.492188 112.769531 105.199219 113.507812 105.199219 C 114.246094 105.199219 114.898438 105.492188 115.382812 105.976562 C 115.867188 106.460938 116.160156 107.117188 116.160156 107.851562 C 116.160156 108.589844 115.867188 109.246094 115.382812 109.730469 C 114.898438 110.214844 114.246094 110.507812 113.507812 110.507812 M 113.507812 102.15625 C 111.9375 102.15625 110.503906 102.796875 109.480469 103.824219 C 108.796875 104.507812 108.28125 105.371094 108.015625 106.332031 C 107.882812 106.816406 107.8125 107.328125 107.8125 107.851562 C 107.8125 108.378906 107.882812 108.886719 108.015625 109.371094 C 108.28125 110.335938 108.796875 111.199219 109.480469 111.878906 C 110.503906 112.90625 111.9375 113.546875 113.503906 113.546875 C 113.503906 113.546875 113.503906 113.546875 113.507812 113.546875 C 115.074219 113.546875 116.507812 112.90625 117.53125 111.878906 C 118.5625 110.855469 119.203125 109.421875 119.203125 107.851562 C 119.203125 106.285156 118.5625 104.851562 117.53125 103.824219 C 116.507812 102.796875 115.074219 102.15625 113.507812 102.15625 " fill-opacity="1" fill-rule="nonzero"/></g><path fill="#0096c7" d="M 101.988281 94.070312 L 98.183594 94.070312 L 98.183594 97.113281 L 101.988281 97.113281 C 101.851562 96.625 101.78125 96.117188 101.78125 95.589844 C 101.78125 95.066406 101.851562 94.554688 101.988281 94.070312 " fill-opacity="1" fill-rule="nonzero"/><path fill="#0096c7" d="M 107.476562 98.246094 C 106.738281 98.246094 106.085938 97.953125 105.597656 97.46875 C 105.117188 96.984375 104.820312 96.328125 104.820312 95.589844 C 104.820312 94.851562 105.117188 94.199219 105.597656 93.714844 C 106.085938 93.230469 106.738281 92.9375 107.476562 92.9375 C 108.214844 92.9375 108.867188 93.230469 109.355469 93.714844 C 109.835938 94.199219 110.132812 94.851562 110.132812 95.589844 C 110.132812 96.328125 109.835938 96.984375 109.355469 97.46875 C 108.867188 97.953125 108.214844 98.246094 107.476562 98.246094 M 107.476562 89.894531 C 105.910156 89.894531 104.476562 90.535156 103.449219 91.5625 C 102.765625 92.246094 102.253906 93.109375 101.988281 94.070312 C 101.851562 94.554688 101.78125 95.066406 101.78125 95.589844 C 101.78125 96.117188 101.851562 96.628906 101.988281 97.113281 C 102.253906 98.074219 102.765625 98.9375 103.449219 99.617188 C 104.476562 100.644531 105.90625 101.285156 107.472656 101.285156 C 107.476562 101.285156 107.476562 101.285156 107.476562 101.285156 C 109.042969 101.289062 110.476562 100.648438 111.503906 99.617188 C 112.53125 98.59375 113.171875 97.160156 113.171875 95.589844 C 113.171875 94.023438 112.53125 92.589844 111.503906 91.5625 C 110.476562 90.535156 109.046875 89.894531 107.476562 89.894531 " fill-opacity="1" fill-rule="nonzero"/><path fill="#0096c7" d="M 61.214844 72.40625 C 58.632812 72.429688 56.285156 73.488281 54.589844 75.183594 C 52.894531 76.878906 51.835938 79.226562 51.8125 81.808594 L 54.851562 81.808594 L 54.851562 84.851562 L 51.8125 84.851562 L 51.8125 94.070312 L 54.851562 94.070312 L 54.851562 97.113281 L 51.8125 97.113281 L 51.8125 106.332031 L 54.851562 106.332031 L 54.851562 109.375 L 51.8125 109.375 C 51.835938 111.957031 52.894531 114.304688 54.589844 116 C 56.285156 117.695312 58.632812 118.753906 61.214844 118.777344 L 61.214844 115.738281 L 64.257812 115.738281 L 64.257812 118.777344 L 73.480469 118.777344 L 73.480469 115.738281 L 76.519531 115.738281 L 76.519531 118.777344 L 85.742188 118.777344 L 85.742188 115.738281 L 88.78125 115.738281 L 88.78125 118.777344 C 91.363281 118.753906 93.710938 117.695312 95.40625 116 C 97.101562 114.304688 98.164062 111.957031 98.183594 109.375 L 95.144531 109.375 L 95.144531 109.289062 C 95.144531 111.074219 94.425781 112.675781 93.257812 113.847656 C 92.085938 115.019531 90.480469 115.738281 88.699219 115.738281 L 61.300781 115.738281 C 59.515625 115.734375 57.914062 115.019531 56.742188 113.847656 C 55.574219 112.675781 54.855469 111.074219 54.855469 109.289062 L 54.855469 81.894531 C 54.855469 80.109375 55.574219 78.507812 56.742188 77.335938 C 57.914062 76.164062 59.515625 75.449219 61.300781 75.445312 L 61.21875 75.445312 L 61.21875 72.40625 M 88.78125 72.40625 L 88.78125 75.445312 L 88.695312 75.445312 C 90.480469 75.445312 92.085938 76.164062 93.253906 77.335938 C 94.425781 78.503906 95.144531 80.109375 95.144531 81.894531 L 95.144531 81.808594 L 98.183594 81.808594 C 98.160156 79.226562 97.101562 76.878906 95.40625 75.183594 C 93.710938 73.488281 91.363281 72.429688 88.78125 72.40625 M 73.480469 72.40625 L 64.257812 72.40625 L 64.257812 75.445312 L 73.480469 75.445312 L 73.480469 72.40625 M 85.738281 72.40625 L 76.519531 72.40625 L 76.519531 75.445312 L 85.738281 75.445312 L 85.738281 72.40625 " fill-opacity="1" fill-rule="nonzero"/><path fill="#0096c7" d="M 88.78125 115.738281 L 85.738281 115.738281 L 85.738281 118.777344 L 88.695312 118.777344 C 88.726562 118.777344 88.753906 118.777344 88.78125 118.777344 L 88.78125 115.738281 " fill-opacity="1" fill-rule="nonzero"/><path fill="#0096c7" d="M 64.257812 115.738281 L 61.214844 115.738281 L 61.214844 118.777344 C 61.242188 118.777344 61.269531 118.777344 61.296875 118.777344 C 61.296875 118.777344 61.300781 118.777344 61.300781 118.777344 L 64.257812 118.777344 L 64.257812 115.738281 " fill-opacity="1" fill-rule="nonzero"/><path fill="#0096c7" d="M 76.519531 115.738281 L 73.480469 115.738281 L 73.480469 118.777344 L 76.519531 118.777344 L 76.519531 115.738281 " fill-opacity="1" fill-rule="nonzero"/><path fill="#0096c7" d="M 64.257812 72.40625 L 61.300781 72.40625 C 61.273438 72.40625 61.246094 72.40625 61.214844 72.40625 L 61.214844 75.445312 L 64.257812 75.445312 L 64.257812 72.40625 " fill-opacity="1" fill-rule="nonzero"/><path fill="#0096c7" d="M 88.699219 72.40625 C 88.699219 72.40625 88.699219 72.40625 88.695312 72.40625 L 85.738281 72.40625 L 85.738281 75.445312 L 88.78125 75.445312 L 88.78125 72.40625 C 88.753906 72.40625 88.726562 72.40625 88.699219 72.40625 " fill-opacity="1" fill-rule="nonzero"/><path fill="#0096c7" d="M 76.519531 72.40625 L 73.480469 72.40625 L 73.480469 75.445312 L 76.519531 75.445312 L 76.519531 72.40625 " fill-opacity="1" fill-rule="nonzero"/><path fill="#0096c7" d="M 98.183594 97.113281 L 95.144531 97.113281 L 95.144531 106.332031 L 98.183594 106.332031 L 98.183594 97.113281 M 98.183594 84.851562 L 95.144531 84.851562 L 95.144531 94.070312 L 98.183594 94.070312 L 98.183594 84.851562 " fill-opacity="1" fill-rule="nonzero"/><path fill="#0096c7" d="M 54.851562 106.332031 L 51.8125 106.332031 L 51.8125 109.289062 C 51.8125 109.316406 51.8125 109.34375 51.8125 109.371094 L 54.851562 109.371094 L 54.851562 106.332031 " fill-opacity="1" fill-rule="nonzero"/><path fill="#0096c7" d="M 54.851562 81.808594 L 51.8125 81.808594 C 51.8125 81.835938 51.8125 81.863281 51.8125 81.890625 L 51.8125 84.851562 L 54.851562 84.851562 L 54.851562 81.808594 " fill-opacity="1" fill-rule="nonzero"/><path fill="#0096c7" d="M 54.851562 94.070312 L 51.8125 94.070312 L 51.8125 97.113281 L 54.851562 97.113281 L 54.851562 94.070312 " fill-opacity="1" fill-rule="nonzero"/><path fill="#0096c7" d="M 98.183594 81.808594 L 95.144531 81.808594 L 95.144531 84.851562 L 98.183594 84.851562 L 98.183594 81.890625 C 98.183594 81.863281 98.183594 81.835938 98.183594 81.808594 " fill-opacity="1" fill-rule="nonzero"/><path fill="#0096c7" d="M 98.183594 109.289062 L 95.144531 109.289062 L 95.144531 109.371094 L 98.183594 109.371094 C 98.183594 109.34375 98.183594 109.316406 98.183594 109.289062 M 98.183594 106.332031 L 95.144531 106.332031 L 95.144531 109.289062 L 98.183594 109.289062 L 98.183594 106.332031 " fill-opacity="1" fill-rule="nonzero"/><path fill="#0096c7" d="M 98.183594 94.070312 L 95.144531 94.070312 L 95.144531 97.113281 L 98.183594 97.113281 L 98.183594 94.070312 " fill-opacity="1" fill-rule="nonzero"/><path fill="#03045e" d="M 83.925781 79.953125 L 66.074219 79.953125 C 64.222656 79.953125 62.535156 80.707031 61.328125 81.921875 C 60.117188 83.128906 59.359375 84.816406 59.359375 86.664062 L 59.359375 104.515625 C 59.359375 106.367188 60.117188 108.054688 61.328125 109.261719 C 62.535156 110.472656 64.222656 111.230469 66.070312 111.230469 C 66.070312 111.230469 66.070312 111.230469 66.074219 111.230469 L 83.925781 111.230469 C 85.773438 111.230469 87.460938 110.476562 88.671875 109.261719 C 89.882812 108.054688 90.636719 106.367188 90.636719 104.515625 L 87.597656 104.515625 C 87.59375 105.535156 87.1875 106.445312 86.519531 107.113281 C 85.851562 107.78125 84.945312 108.1875 83.925781 108.1875 L 66.074219 108.1875 C 65.054688 108.1875 64.144531 107.78125 63.476562 107.113281 C 62.808594 106.445312 62.402344 105.535156 62.402344 104.515625 L 62.402344 86.664062 C 62.402344 85.648438 62.808594 84.738281 63.476562 84.070312 C 64.144531 83.402344 65.054688 82.996094 66.074219 82.996094 L 83.925781 82.996094 C 84.945312 82.996094 85.851562 83.402344 86.519531 84.070312 C 87.1875 84.738281 87.59375 85.648438 87.597656 86.664062 L 87.597656 104.515625 L 90.636719 104.515625 L 90.636719 86.664062 C 90.636719 84.816406 89.882812 83.128906 88.671875 81.917969 C 87.460938 80.707031 85.773438 79.953125 83.925781 79.953125 " fill-opacity="1" fill-rule="nonzero"/></svg>