<svg xmlns="http://www.w3.org/2000/svg" xmlns:xlink="http://www.w3.org/1999/xlink" width="200" zoomAndPan="magnify" viewBox="0 0 150 149.999998" height="200" preserveAspectRatio="xMidYMid meet" version="1.0"><defs><g/><clipPath id="8fd8c07fa7"><path d="M 43.039062 27.039062 L 106.789062 27.039062 L 106.789062 90.789062 L 43.039062 90.789062 Z M 43.039062 27.039062 " clip-rule="nonzero"/></clipPath><clipPath id="4065eee90d"><path d="M 68 49.5625 L 73 49.5625 L 73 54 L 68 54 Z M 68 49.5625 " clip-rule="nonzero"/></clipPath><clipPath id="9e1071315a"><path d="M 77 49.5625 L 82 49.5625 L 82 54 L 77 54 Z M 77 49.5625 " clip-rule="nonzero"/></clipPath><clipPath id="01fbfd09d2"><path d="M 57.921875 59 L 63 59 L 63 65 L 57.921875 65 Z M 57.921875 59 " clip-rule="nonzero"/></clipPath><clipPath id="001cd7558d"><path d="M 87 59 L 92.421875 59 L 92.421875 65 L 87 65 Z M 87 59 " clip-rule="nonzero"/></clipPath><clipPath id="c18c4b6d0f"><path d="M 87 69 L 92.421875 69 L 92.421875 74 L 87 74 Z M 87 69 " clip-rule="nonzero"/></clipPath></defs><rect x="-15" width="180" fill="#ffffff" y="-15" height="179.999997" fill-opacity="1"/><rect x="-15" width="180" fill="#ffffff" y="-15" height="179.999997" fill-opacity="1"/><g clip-path="url(#8fd8c07fa7)"><path fill="#0096c7" d="M 106.613281 58.453125 L 75.453125 27.292969 C 75.203125 27.039062 74.789062 27.039062 74.535156 27.292969 L 57.46875 44.363281 L 57.46875 35.542969 C 57.46875 35.183594 57.175781 34.894531 56.820312 34.894531 C 56.460938 34.894531 56.171875 35.183594 56.171875 35.542969 L 56.171875 45.660156 L 43.378906 58.453125 C 43.125 58.707031 43.125 59.117188 43.378906 59.371094 C 43.628906 59.625 44.042969 59.625 44.296875 59.371094 L 50.976562 52.691406 L 50.976562 90.070312 C 50.976562 90.429688 51.265625 90.71875 51.625 90.71875 L 98.363281 90.71875 C 98.722656 90.71875 99.011719 90.429688 99.011719 90.070312 L 99.011719 52.6875 L 105.691406 59.371094 C 105.820312 59.496094 105.988281 59.558594 106.152344 59.558594 C 106.320312 59.558594 106.484375 59.496094 106.613281 59.371094 C 106.867188 59.117188 106.867188 58.707031 106.613281 58.453125 Z M 97.714844 89.421875 L 52.277344 89.421875 L 52.277344 51.390625 L 74.996094 28.671875 L 97.714844 51.390625 Z M 97.714844 89.421875 " fill-opacity="1" fill-rule="nonzero"/></g><path fill="#03045e" d="M 80.320312 75.59375 C 80.308594 75.59375 80.300781 75.59375 80.289062 75.59375 L 79.144531 75.59375 L 79.144531 77.0625 C 79.332031 77.011719 79.53125 76.984375 79.734375 76.984375 C 79.9375 76.984375 80.132812 77.011719 80.320312 77.0625 L 80.320312 75.59375 " fill-opacity="1" fill-rule="nonzero"/><path fill="#03045e" d="M 79.734375 76.984375 C 79.53125 76.984375 79.332031 77.011719 79.144531 77.0625 C 78.773438 77.167969 78.441406 77.363281 78.179688 77.628906 C 77.78125 78.023438 77.535156 78.578125 77.535156 79.183594 L 78.707031 79.183594 C 78.707031 78.898438 78.820312 78.644531 79.007812 78.457031 C 79.195312 78.273438 79.449219 78.160156 79.734375 78.160156 C 80.019531 78.160156 80.269531 78.273438 80.457031 78.457031 C 80.644531 78.644531 80.757812 78.898438 80.757812 79.183594 C 80.757812 79.46875 80.644531 79.722656 80.457031 79.910156 C 80.269531 80.09375 80.019531 80.210938 79.734375 80.210938 C 79.449219 80.210938 79.195312 80.09375 79.007812 79.910156 C 78.820312 79.722656 78.707031 79.46875 78.707031 79.183594 L 77.535156 79.183594 C 77.535156 79.789062 77.78125 80.34375 78.179688 80.738281 C 78.574219 81.136719 79.128906 81.382812 79.730469 81.382812 C 79.734375 81.382812 79.734375 81.382812 79.734375 81.382812 C 80.339844 81.382812 80.894531 81.136719 81.289062 80.738281 C 81.6875 80.34375 81.933594 79.789062 81.933594 79.183594 C 81.933594 78.578125 81.6875 78.023438 81.289062 77.628906 C 81.027344 77.363281 80.691406 77.167969 80.320312 77.0625 C 80.132812 77.011719 79.9375 76.984375 79.734375 76.984375 " fill-opacity="1" fill-rule="nonzero"/><path fill="#0096c7" d="M 69.671875 75.59375 L 69.671875 79.390625 C 69.859375 79.339844 70.058594 79.3125 70.261719 79.3125 C 70.464844 79.3125 70.660156 79.339844 70.847656 79.390625 L 70.847656 75.59375 L 69.707031 75.59375 C 69.707031 75.59375 69.707031 75.59375 69.703125 75.59375 C 69.695312 75.59375 69.683594 75.59375 69.671875 75.59375 " fill-opacity="1" fill-rule="nonzero"/><path fill="#0096c7" d="M 70.261719 79.3125 C 70.058594 79.3125 69.859375 79.339844 69.671875 79.390625 C 69.300781 79.496094 68.96875 79.691406 68.707031 79.957031 C 68.308594 80.355469 68.0625 80.90625 68.0625 81.511719 L 69.234375 81.511719 C 69.234375 81.226562 69.347656 80.976562 69.535156 80.789062 C 69.722656 80.601562 69.976562 80.488281 70.261719 80.488281 C 70.546875 80.488281 70.796875 80.601562 70.984375 80.789062 C 71.171875 80.976562 71.285156 81.226562 71.285156 81.511719 C 71.285156 81.796875 71.171875 82.050781 70.984375 82.238281 C 70.796875 82.425781 70.546875 82.539062 70.261719 82.539062 C 69.976562 82.539062 69.722656 82.425781 69.535156 82.238281 C 69.347656 82.050781 69.234375 81.796875 69.234375 81.511719 L 68.0625 81.511719 C 68.0625 82.117188 68.308594 82.671875 68.707031 83.070312 C 69.101562 83.464844 69.65625 83.710938 70.257812 83.710938 C 70.261719 83.710938 70.261719 83.710938 70.261719 83.710938 C 70.867188 83.714844 71.421875 83.464844 71.816406 83.070312 C 72.214844 82.671875 72.460938 82.117188 72.460938 81.511719 C 72.460938 80.90625 72.214844 80.355469 71.816406 79.957031 C 71.554688 79.691406 71.21875 79.496094 70.847656 79.390625 C 70.660156 79.339844 70.464844 79.3125 70.261719 79.3125 " fill-opacity="1" fill-rule="nonzero"/><path fill="#0096c7" d="M 75.585938 75.59375 L 74.410156 75.59375 L 74.410156 78.675781 C 74.597656 78.625 74.792969 78.597656 74.996094 78.597656 C 74.996094 78.597656 74.996094 78.597656 75 78.597656 C 75.199219 78.597656 75.398438 78.625 75.585938 78.675781 L 75.585938 75.59375 " fill-opacity="1" fill-rule="nonzero"/><path fill="#0096c7" d="M 75 78.597656 C 74.996094 78.597656 74.996094 78.597656 74.996094 78.597656 C 74.792969 78.597656 74.597656 78.625 74.410156 78.675781 C 74.039062 78.777344 73.707031 78.976562 73.441406 79.242188 C 73.042969 79.636719 72.796875 80.191406 72.796875 80.796875 L 73.972656 80.796875 C 73.972656 80.511719 74.085938 80.257812 74.273438 80.070312 C 74.460938 79.886719 74.710938 79.769531 74.996094 79.769531 C 75.28125 79.769531 75.535156 79.886719 75.722656 80.070312 C 75.910156 80.257812 76.023438 80.511719 76.023438 80.796875 C 76.023438 81.082031 75.910156 81.335938 75.722656 81.523438 C 75.535156 81.707031 75.28125 81.820312 74.996094 81.824219 C 74.710938 81.820312 74.460938 81.707031 74.273438 81.523438 C 74.085938 81.335938 73.972656 81.082031 73.972656 80.796875 L 72.796875 80.796875 C 72.796875 81.402344 73.042969 81.957031 73.441406 82.351562 C 73.835938 82.75 74.390625 82.996094 74.996094 82.996094 C 75.601562 82.996094 76.15625 82.75 76.550781 82.351562 C 76.949219 81.957031 77.195312 81.402344 77.195312 80.796875 C 77.195312 80.191406 76.949219 79.636719 76.550781 79.242188 C 76.289062 78.976562 75.957031 78.777344 75.585938 78.675781 C 75.398438 78.625 75.199219 78.597656 75 78.597656 " fill-opacity="1" fill-rule="nonzero"/><path fill="#03045e" d="M 69.671875 53.882812 L 69.671875 57.683594 C 69.683594 57.683594 69.695312 57.683594 69.707031 57.683594 L 70.847656 57.683594 L 70.847656 53.882812 C 70.660156 53.9375 70.464844 53.964844 70.261719 53.964844 C 70.261719 53.964844 70.261719 53.964844 70.257812 53.964844 C 70.058594 53.964844 69.859375 53.9375 69.671875 53.882812 " fill-opacity="1" fill-rule="nonzero"/><g clip-path="url(#4065eee90d)"><path fill="#03045e" d="M 70.261719 49.5625 C 69.65625 49.5625 69.101562 49.8125 68.707031 50.207031 C 68.308594 50.605469 68.0625 51.160156 68.0625 51.765625 C 68.0625 52.371094 68.308594 52.921875 68.707031 53.320312 C 68.96875 53.582031 69.300781 53.78125 69.671875 53.886719 C 69.859375 53.9375 70.058594 53.964844 70.261719 53.964844 C 70.464844 53.964844 70.660156 53.9375 70.847656 53.886719 C 71.21875 53.78125 71.554688 53.582031 71.816406 53.320312 C 72.214844 52.921875 72.460938 52.371094 72.460938 51.765625 L 71.285156 51.765625 C 71.285156 52.050781 71.171875 52.300781 70.984375 52.488281 C 70.796875 52.675781 70.546875 52.789062 70.261719 52.789062 C 69.976562 52.789062 69.722656 52.675781 69.535156 52.488281 C 69.347656 52.300781 69.234375 52.050781 69.234375 51.765625 C 69.234375 51.480469 69.347656 51.226562 69.535156 51.039062 C 69.722656 50.851562 69.976562 50.738281 70.261719 50.738281 C 70.546875 50.738281 70.796875 50.851562 70.984375 51.039062 C 71.171875 51.226562 71.285156 51.480469 71.285156 51.765625 L 72.460938 51.765625 C 72.460938 51.160156 72.214844 50.605469 71.816406 50.207031 C 71.421875 49.8125 70.867188 49.5625 70.261719 49.5625 " fill-opacity="1" fill-rule="nonzero"/></g><path fill="#0096c7" d="M 79.144531 53.882812 L 79.144531 57.683594 L 80.289062 57.683594 C 80.300781 57.683594 80.308594 57.683594 80.320312 57.683594 L 80.320312 53.882812 C 80.132812 53.9375 79.9375 53.964844 79.734375 53.964844 C 79.734375 53.964844 79.734375 53.964844 79.730469 53.964844 C 79.53125 53.964844 79.332031 53.9375 79.144531 53.882812 " fill-opacity="1" fill-rule="nonzero"/><g clip-path="url(#9e1071315a)"><path fill="#0096c7" d="M 79.734375 49.5625 C 79.128906 49.5625 78.574219 49.8125 78.179688 50.207031 C 77.78125 50.605469 77.535156 51.160156 77.535156 51.765625 C 77.535156 52.371094 77.78125 52.921875 78.179688 53.320312 C 78.441406 53.582031 78.773438 53.78125 79.144531 53.886719 C 79.332031 53.9375 79.53125 53.964844 79.730469 53.964844 C 79.734375 53.964844 79.734375 53.964844 79.734375 53.964844 C 79.9375 53.964844 80.132812 53.9375 80.320312 53.886719 C 80.691406 53.78125 81.027344 53.582031 81.289062 53.320312 C 81.6875 52.921875 81.933594 52.371094 81.933594 51.765625 L 80.757812 51.765625 C 80.757812 52.050781 80.644531 52.300781 80.457031 52.488281 C 80.269531 52.675781 80.019531 52.789062 79.734375 52.789062 C 79.449219 52.789062 79.195312 52.675781 79.007812 52.488281 C 78.820312 52.300781 78.707031 52.050781 78.707031 51.765625 C 78.707031 51.480469 78.820312 51.226562 79.007812 51.039062 C 79.195312 50.851562 79.449219 50.738281 79.734375 50.738281 C 80.019531 50.738281 80.269531 50.851562 80.457031 51.039062 C 80.644531 51.226562 80.757812 51.480469 80.757812 51.765625 L 81.933594 51.765625 C 81.933594 51.160156 81.6875 50.605469 81.289062 50.207031 C 80.894531 49.8125 80.339844 49.5625 79.734375 49.5625 " fill-opacity="1" fill-rule="nonzero"/></g><path fill="#0096c7" d="M 75.585938 56.214844 C 75.398438 56.265625 75.199219 56.292969 74.996094 56.292969 C 74.792969 56.292969 74.597656 56.265625 74.410156 56.214844 L 74.410156 57.683594 L 75.585938 57.683594 L 75.585938 56.214844 " fill-opacity="1" fill-rule="nonzero"/><path fill="#0096c7" d="M 75 51.894531 C 74.996094 51.894531 74.996094 51.894531 74.996094 51.894531 C 74.390625 51.894531 73.835938 52.140625 73.441406 52.539062 C 73.042969 52.933594 72.796875 53.488281 72.796875 54.09375 C 72.796875 54.699219 73.042969 55.253906 73.441406 55.648438 C 73.707031 55.914062 74.039062 56.109375 74.410156 56.214844 C 74.597656 56.265625 74.792969 56.292969 74.996094 56.292969 C 75.199219 56.292969 75.398438 56.265625 75.585938 56.214844 C 75.957031 56.109375 76.289062 55.914062 76.550781 55.648438 C 76.949219 55.253906 77.195312 54.699219 77.195312 54.09375 L 76.023438 54.09375 C 76.023438 54.378906 75.910156 54.632812 75.722656 54.820312 C 75.535156 55.003906 75.28125 55.117188 74.996094 55.117188 C 74.710938 55.117188 74.460938 55.003906 74.273438 54.820312 C 74.085938 54.632812 73.972656 54.378906 73.972656 54.09375 C 73.972656 53.808594 74.085938 53.554688 74.273438 53.367188 C 74.460938 53.183594 74.710938 53.066406 74.996094 53.066406 C 75.28125 53.066406 75.535156 53.183594 75.722656 53.367188 C 75.910156 53.554688 76.023438 53.808594 76.023438 54.09375 L 77.195312 54.09375 C 77.195312 53.488281 76.949219 52.933594 76.550781 52.539062 C 76.15625 52.140625 75.605469 51.894531 75 51.894531 " fill-opacity="1" fill-rule="nonzero"/><path fill="#03045e" d="M 66.042969 70.789062 L 64.570312 70.789062 C 64.625 70.976562 64.652344 71.171875 64.652344 71.375 C 64.652344 71.578125 64.625 71.773438 64.570312 71.960938 L 66.042969 71.960938 C 66.042969 71.953125 66.042969 71.941406 66.042969 71.929688 L 66.042969 70.789062 " fill-opacity="1" fill-rule="nonzero"/><path fill="#03045e" d="M 62.453125 72.402344 C 62.167969 72.398438 61.914062 72.285156 61.726562 72.101562 C 61.539062 71.914062 61.425781 71.660156 61.425781 71.375 C 61.425781 71.089844 61.539062 70.835938 61.726562 70.648438 C 61.914062 70.464844 62.167969 70.351562 62.453125 70.347656 C 62.738281 70.351562 62.988281 70.464844 63.175781 70.648438 C 63.363281 70.835938 63.476562 71.089844 63.476562 71.375 C 63.476562 71.660156 63.363281 71.914062 63.175781 72.101562 C 62.988281 72.285156 62.738281 72.398438 62.453125 72.402344 M 62.453125 69.175781 C 61.847656 69.175781 61.292969 69.421875 60.894531 69.820312 C 60.5 70.214844 60.25 70.769531 60.253906 71.375 C 60.25 71.980469 60.5 72.535156 60.894531 72.929688 C 61.292969 73.328125 61.847656 73.574219 62.453125 73.574219 C 63.058594 73.574219 63.609375 73.328125 64.007812 72.929688 C 64.273438 72.667969 64.46875 72.332031 64.574219 71.960938 C 64.625 71.773438 64.652344 71.578125 64.652344 71.375 C 64.652344 71.171875 64.625 70.976562 64.574219 70.789062 C 64.46875 70.417969 64.273438 70.082031 64.007812 69.820312 C 63.613281 69.421875 63.058594 69.175781 62.453125 69.175781 " fill-opacity="1" fill-rule="nonzero"/><path fill="#0096c7" d="M 66.042969 61.316406 L 62.242188 61.316406 C 62.296875 61.503906 62.324219 61.699219 62.324219 61.902344 C 62.324219 62.105469 62.296875 62.300781 62.242188 62.488281 L 66.042969 62.488281 L 66.042969 61.347656 C 66.042969 61.335938 66.042969 61.324219 66.042969 61.316406 " fill-opacity="1" fill-rule="nonzero"/><g clip-path="url(#01fbfd09d2)"><path fill="#0096c7" d="M 60.121094 62.929688 C 59.835938 62.925781 59.585938 62.8125 59.398438 62.628906 C 59.210938 62.441406 59.097656 62.1875 59.097656 61.902344 C 59.097656 61.617188 59.210938 61.363281 59.398438 61.175781 C 59.585938 60.992188 59.835938 60.878906 60.121094 60.875 C 60.40625 60.878906 60.660156 60.992188 60.847656 61.175781 C 61.035156 61.363281 61.148438 61.617188 61.148438 61.902344 C 61.148438 62.1875 61.035156 62.441406 60.847656 62.628906 C 60.660156 62.8125 60.40625 62.925781 60.121094 62.929688 M 60.125 59.703125 C 60.125 59.703125 60.125 59.703125 60.121094 59.703125 C 59.515625 59.703125 58.964844 59.949219 58.566406 60.347656 C 58.171875 60.742188 57.921875 61.296875 57.921875 61.902344 C 57.921875 62.507812 58.171875 63.0625 58.566406 63.457031 C 58.964844 63.855469 59.515625 64.101562 60.121094 64.101562 C 60.726562 64.101562 61.28125 63.855469 61.679688 63.457031 C 61.941406 63.195312 62.140625 62.863281 62.242188 62.488281 C 62.296875 62.300781 62.324219 62.105469 62.324219 61.902344 C 62.324219 61.699219 62.296875 61.503906 62.242188 61.316406 C 62.140625 60.945312 61.941406 60.609375 61.679688 60.347656 C 61.28125 59.949219 60.730469 59.703125 60.125 59.703125 " fill-opacity="1" fill-rule="nonzero"/></g><path fill="#0096c7" d="M 66.042969 66.050781 L 62.960938 66.050781 C 63.011719 66.238281 63.039062 66.4375 63.039062 66.636719 C 63.039062 66.839844 63.011719 67.039062 62.960938 67.226562 L 66.042969 67.226562 L 66.042969 66.050781 " fill-opacity="1" fill-rule="nonzero"/><path fill="#0096c7" d="M 60.839844 67.664062 C 60.554688 67.664062 60.300781 67.550781 60.113281 67.363281 C 59.925781 67.175781 59.8125 66.921875 59.8125 66.636719 C 59.8125 66.355469 59.925781 66.101562 60.113281 65.914062 C 60.300781 65.726562 60.554688 65.613281 60.839844 65.613281 C 61.125 65.613281 61.378906 65.726562 61.5625 65.914062 C 61.75 66.101562 61.863281 66.355469 61.863281 66.636719 C 61.863281 66.921875 61.75 67.175781 61.5625 67.363281 C 61.378906 67.550781 61.125 67.664062 60.839844 67.664062 M 60.839844 64.4375 C 60.234375 64.4375 59.679688 64.6875 59.285156 65.082031 C 58.886719 65.480469 58.640625 66.03125 58.640625 66.636719 C 58.640625 67.246094 58.886719 67.796875 59.285156 68.195312 C 59.679688 68.589844 60.234375 68.839844 60.835938 68.839844 C 60.839844 68.839844 60.839844 68.839844 60.839844 68.839844 C 61.445312 68.839844 62 68.589844 62.394531 68.195312 C 62.660156 67.929688 62.855469 67.597656 62.960938 67.226562 C 63.011719 67.039062 63.039062 66.839844 63.039062 66.640625 C 63.039062 66.4375 63.011719 66.238281 62.960938 66.050781 C 62.855469 65.679688 62.660156 65.347656 62.394531 65.082031 C 62 64.6875 61.445312 64.4375 60.839844 64.4375 " fill-opacity="1" fill-rule="nonzero"/><path fill="#03045e" d="M 87.75 61.316406 L 83.953125 61.316406 C 83.953125 61.324219 83.953125 61.335938 83.953125 61.347656 L 83.953125 62.488281 L 87.75 62.488281 C 87.699219 62.300781 87.671875 62.105469 87.671875 61.902344 C 87.671875 61.699219 87.699219 61.503906 87.75 61.316406 " fill-opacity="1" fill-rule="nonzero"/><g clip-path="url(#001cd7558d)"><path fill="#03045e" d="M 89.871094 62.929688 C 89.585938 62.925781 89.332031 62.8125 89.144531 62.628906 C 88.960938 62.441406 88.847656 62.1875 88.847656 61.902344 C 88.847656 61.617188 88.960938 61.363281 89.144531 61.175781 C 89.332031 60.992188 89.585938 60.878906 89.871094 60.875 C 90.15625 60.878906 90.410156 60.992188 90.597656 61.175781 C 90.78125 61.363281 90.898438 61.617188 90.898438 61.902344 C 90.898438 62.1875 90.78125 62.441406 90.597656 62.628906 C 90.410156 62.8125 90.15625 62.925781 89.871094 62.929688 M 89.871094 59.703125 C 89.265625 59.703125 88.710938 59.949219 88.316406 60.347656 C 88.050781 60.609375 87.855469 60.945312 87.75 61.316406 C 87.699219 61.503906 87.671875 61.699219 87.671875 61.902344 C 87.671875 62.105469 87.699219 62.300781 87.75 62.488281 C 87.855469 62.859375 88.050781 63.195312 88.316406 63.457031 C 88.710938 63.855469 89.265625 64.101562 89.871094 64.101562 C 90.476562 64.101562 91.03125 63.855469 91.425781 63.457031 C 91.824219 63.0625 92.070312 62.507812 92.070312 61.902344 C 92.070312 61.296875 91.824219 60.742188 91.425781 60.347656 C 91.03125 59.949219 90.476562 59.703125 89.871094 59.703125 " fill-opacity="1" fill-rule="nonzero"/></g><path fill="#0096c7" d="M 87.75 70.789062 L 83.953125 70.789062 L 83.953125 71.929688 C 83.953125 71.941406 83.953125 71.953125 83.953125 71.960938 L 87.75 71.960938 C 87.699219 71.773438 87.671875 71.578125 87.671875 71.375 C 87.671875 71.171875 87.699219 70.976562 87.75 70.789062 " fill-opacity="1" fill-rule="nonzero"/><g clip-path="url(#c18c4b6d0f)"><path fill="#0096c7" d="M 89.871094 72.402344 C 89.585938 72.398438 89.332031 72.285156 89.144531 72.101562 C 88.960938 71.914062 88.847656 71.660156 88.847656 71.375 C 88.847656 71.089844 88.960938 70.835938 89.144531 70.648438 C 89.332031 70.464844 89.585938 70.351562 89.871094 70.347656 C 90.15625 70.351562 90.410156 70.464844 90.597656 70.648438 C 90.78125 70.835938 90.898438 71.089844 90.898438 71.375 C 90.898438 71.660156 90.78125 71.914062 90.597656 72.101562 C 90.410156 72.285156 90.15625 72.398438 89.871094 72.402344 M 89.871094 69.175781 C 89.265625 69.175781 88.710938 69.421875 88.316406 69.820312 C 88.050781 70.082031 87.855469 70.417969 87.75 70.789062 C 87.699219 70.976562 87.671875 71.171875 87.671875 71.375 C 87.671875 71.578125 87.699219 71.773438 87.75 71.960938 C 87.855469 72.332031 88.050781 72.667969 88.316406 72.929688 C 88.710938 73.328125 89.265625 73.574219 89.871094 73.574219 C 90.476562 73.574219 91.03125 73.328125 91.425781 72.929688 C 91.824219 72.535156 92.070312 71.980469 92.070312 71.375 C 92.070312 70.769531 91.824219 70.214844 91.425781 69.820312 C 91.03125 69.421875 90.476562 69.175781 89.871094 69.175781 " fill-opacity="1" fill-rule="nonzero"/></g><path fill="#0096c7" d="M 85.421875 66.050781 L 83.953125 66.050781 L 83.953125 67.226562 L 85.421875 67.226562 C 85.371094 67.039062 85.34375 66.839844 85.34375 66.640625 C 85.34375 66.4375 85.371094 66.238281 85.421875 66.050781 " fill-opacity="1" fill-rule="nonzero"/><path fill="#0096c7" d="M 87.542969 67.664062 C 87.257812 67.664062 87.003906 67.550781 86.816406 67.363281 C 86.628906 67.175781 86.515625 66.921875 86.515625 66.636719 C 86.515625 66.351562 86.628906 66.101562 86.816406 65.914062 C 87.003906 65.726562 87.257812 65.613281 87.542969 65.613281 C 87.828125 65.613281 88.082031 65.726562 88.265625 65.914062 C 88.453125 66.101562 88.566406 66.351562 88.566406 66.636719 C 88.566406 66.921875 88.453125 67.175781 88.265625 67.363281 C 88.082031 67.550781 87.828125 67.664062 87.542969 67.664062 M 87.542969 64.4375 C 86.9375 64.4375 86.382812 64.6875 85.988281 65.082031 C 85.722656 65.347656 85.523438 65.679688 85.421875 66.050781 C 85.371094 66.238281 85.34375 66.4375 85.34375 66.640625 C 85.34375 66.839844 85.371094 67.039062 85.421875 67.226562 C 85.523438 67.597656 85.722656 67.929688 85.988281 68.195312 C 86.382812 68.589844 86.9375 68.839844 87.542969 68.839844 C 88.148438 68.839844 88.703125 68.589844 89.097656 68.195312 C 89.496094 67.796875 89.742188 67.246094 89.742188 66.636719 C 89.742188 66.03125 89.496094 65.480469 89.097656 65.082031 C 88.703125 64.6875 88.148438 64.4375 87.542969 64.4375 " fill-opacity="1" fill-rule="nonzero"/><path fill="#0096c7" d="M 69.671875 57.683594 C 68.675781 57.691406 67.769531 58.101562 67.113281 58.757812 C 66.460938 59.410156 66.050781 60.316406 66.042969 61.316406 L 67.214844 61.316406 L 67.214844 62.488281 L 66.042969 62.488281 L 66.042969 66.050781 L 67.214844 66.050781 L 67.214844 67.226562 L 66.042969 67.226562 L 66.042969 70.789062 L 67.214844 70.789062 L 67.214844 71.960938 L 66.042969 71.960938 C 66.050781 72.960938 66.460938 73.867188 67.113281 74.519531 C 67.769531 75.175781 68.675781 75.585938 69.671875 75.59375 L 69.671875 74.421875 L 70.847656 74.421875 L 70.847656 75.59375 L 74.410156 75.59375 L 74.410156 74.421875 L 75.585938 74.421875 L 75.585938 75.59375 L 79.144531 75.59375 L 79.144531 74.421875 L 80.320312 74.421875 L 80.320312 75.59375 C 81.316406 75.585938 82.226562 75.175781 82.878906 74.519531 C 83.535156 73.867188 83.945312 72.960938 83.953125 71.960938 L 82.777344 71.960938 L 82.777344 71.929688 C 82.777344 72.621094 82.5 73.238281 82.050781 73.691406 C 81.597656 74.140625 80.976562 74.421875 80.289062 74.421875 L 69.707031 74.421875 C 69.015625 74.417969 68.398438 74.140625 67.945312 73.691406 C 67.492188 73.238281 67.214844 72.621094 67.214844 71.929688 L 67.214844 61.347656 C 67.214844 60.65625 67.492188 60.039062 67.945312 59.585938 C 68.398438 59.136719 69.015625 58.859375 69.707031 58.859375 L 69.675781 58.859375 L 69.675781 57.683594 M 80.320312 57.683594 L 80.320312 58.855469 L 80.289062 58.855469 C 80.976562 58.859375 81.597656 59.136719 82.050781 59.585938 C 82.5 60.039062 82.777344 60.65625 82.777344 61.347656 L 82.777344 61.316406 L 83.953125 61.316406 C 83.945312 60.316406 83.535156 59.410156 82.878906 58.757812 C 82.226562 58.101562 81.316406 57.691406 80.320312 57.683594 M 74.410156 57.683594 L 70.847656 57.683594 L 70.847656 58.855469 L 74.410156 58.855469 L 74.410156 57.683594 M 79.144531 57.683594 L 75.585938 57.683594 L 75.585938 58.855469 L 79.144531 58.855469 L 79.144531 57.683594 " fill-opacity="1" fill-rule="nonzero"/><path fill="#0096c7" d="M 80.320312 74.421875 L 79.144531 74.421875 L 79.144531 75.59375 L 80.289062 75.59375 C 80.300781 75.59375 80.308594 75.59375 80.320312 75.59375 L 80.320312 74.421875 " fill-opacity="1" fill-rule="nonzero"/><path fill="#0096c7" d="M 70.847656 74.421875 L 69.671875 74.421875 L 69.671875 75.59375 C 69.683594 75.59375 69.695312 75.59375 69.703125 75.59375 C 69.707031 75.59375 69.707031 75.59375 69.707031 75.59375 L 70.847656 75.59375 L 70.847656 74.421875 " fill-opacity="1" fill-rule="nonzero"/><path fill="#0096c7" d="M 75.585938 74.421875 L 74.410156 74.421875 L 74.410156 75.59375 L 75.585938 75.59375 L 75.585938 74.421875 " fill-opacity="1" fill-rule="nonzero"/><path fill="#0096c7" d="M 70.847656 57.683594 L 69.707031 57.683594 C 69.695312 57.683594 69.683594 57.683594 69.671875 57.683594 L 69.671875 58.855469 L 70.847656 58.855469 L 70.847656 57.683594 " fill-opacity="1" fill-rule="nonzero"/><path fill="#0096c7" d="M 80.289062 57.683594 L 79.144531 57.683594 L 79.144531 58.855469 L 80.320312 58.855469 L 80.320312 57.683594 C 80.308594 57.683594 80.300781 57.683594 80.289062 57.683594 " fill-opacity="1" fill-rule="nonzero"/><path fill="#0096c7" d="M 75.585938 57.683594 L 74.410156 57.683594 L 74.410156 58.855469 L 75.585938 58.855469 L 75.585938 57.683594 " fill-opacity="1" fill-rule="nonzero"/><path fill="#0096c7" d="M 83.953125 67.226562 L 82.777344 67.226562 L 82.777344 70.789062 L 83.953125 70.789062 L 83.953125 67.226562 M 83.953125 62.488281 L 82.777344 62.488281 L 82.777344 66.050781 L 83.953125 66.050781 L 83.953125 62.488281 " fill-opacity="1" fill-rule="nonzero"/><path fill="#0096c7" d="M 67.214844 70.789062 L 66.042969 70.789062 L 66.042969 71.929688 C 66.042969 71.941406 66.042969 71.953125 66.042969 71.960938 L 67.214844 71.960938 L 67.214844 70.789062 " fill-opacity="1" fill-rule="nonzero"/><path fill="#0096c7" d="M 67.214844 61.316406 L 66.042969 61.316406 C 66.042969 61.324219 66.042969 61.335938 66.042969 61.347656 L 66.042969 62.488281 L 67.214844 62.488281 L 67.214844 61.316406 " fill-opacity="1" fill-rule="nonzero"/><path fill="#0096c7" d="M 67.214844 66.050781 L 66.042969 66.050781 L 66.042969 67.226562 L 67.214844 67.226562 L 67.214844 66.050781 " fill-opacity="1" fill-rule="nonzero"/><path fill="#0096c7" d="M 83.953125 61.316406 L 82.777344 61.316406 L 82.777344 62.488281 L 83.953125 62.488281 L 83.953125 61.347656 C 83.953125 61.335938 83.953125 61.324219 83.953125 61.316406 " fill-opacity="1" fill-rule="nonzero"/><path fill="#0096c7" d="M 83.953125 71.929688 L 82.777344 71.929688 L 82.777344 71.960938 L 83.953125 71.960938 C 83.953125 71.953125 83.953125 71.941406 83.953125 71.929688 M 83.953125 70.789062 L 82.777344 70.789062 L 82.777344 71.929688 L 83.953125 71.929688 L 83.953125 70.789062 " fill-opacity="1" fill-rule="nonzero"/><path fill="#0096c7" d="M 83.953125 66.050781 L 82.777344 66.050781 L 82.777344 67.226562 L 83.953125 67.226562 L 83.953125 66.050781 " fill-opacity="1" fill-rule="nonzero"/><path fill="#03045e" d="M 78.445312 60.597656 L 71.550781 60.597656 C 70.835938 60.597656 70.183594 60.890625 69.714844 61.359375 C 69.25 61.824219 68.957031 62.476562 68.957031 63.191406 L 68.957031 70.085938 C 68.957031 70.800781 69.25 71.453125 69.714844 71.917969 C 70.183594 72.386719 70.835938 72.679688 71.546875 72.679688 C 71.550781 72.679688 71.550781 72.679688 71.550781 72.679688 L 78.445312 72.679688 C 79.160156 72.679688 79.8125 72.386719 80.277344 71.917969 C 80.746094 71.453125 81.039062 70.800781 81.039062 70.085938 L 79.863281 70.085938 C 79.863281 70.480469 79.707031 70.832031 79.449219 71.089844 C 79.1875 71.347656 78.839844 71.503906 78.445312 71.503906 L 71.550781 71.503906 C 71.15625 71.503906 70.804688 71.347656 70.546875 71.089844 C 70.289062 70.832031 70.132812 70.480469 70.132812 70.085938 L 70.132812 63.191406 C 70.132812 62.796875 70.289062 62.445312 70.546875 62.1875 C 70.804688 61.929688 71.15625 61.773438 71.550781 61.773438 L 78.445312 61.773438 C 78.839844 61.773438 79.1875 61.929688 79.449219 62.1875 C 79.707031 62.445312 79.863281 62.796875 79.863281 63.191406 L 79.863281 70.085938 L 81.039062 70.085938 L 81.039062 63.191406 C 81.039062 62.476562 80.746094 61.824219 80.277344 61.359375 C 79.8125 60.890625 79.160156 60.597656 78.445312 60.597656 " fill-opacity="1" fill-rule="nonzero"/><g fill="#0096c7" fill-opacity="1"><g transform="translate(34.79175, 108.587156)"><g><path d="M 3.457031 -4.441406 C 5.089844 -4.210938 5.773438 -3.660156 5.773438 -2.554688 L 5.773438 -2.449219 C 5.773438 -1.308594 4.921875 -0.648438 3.648438 -0.648438 L 3.5625 -0.648438 C 2.304688 -0.648438 1.414062 -1.402344 1.414062 -3.046875 L 0.550781 -3.046875 L 0.550781 -2.929688 C 0.550781 -0.996094 1.621094 0.132812 3.601562 0.132812 C 5.472656 0.132812 6.660156 -0.851562 6.660156 -2.507812 L 6.660156 -2.628906 C 6.660156 -4.066406 5.820312 -4.894531 3.78125 -5.171875 C 2.0625 -5.410156 1.546875 -6 1.546875 -6.996094 L 1.546875 -7.09375 C 1.546875 -8.101562 2.410156 -8.710938 3.550781 -8.710938 L 3.636719 -8.710938 C 5.0625 -8.710938 5.6875 -7.96875 5.6875 -6.191406 L 6.550781 -6.191406 L 6.550781 -6.480469 C 6.550781 -8.410156 5.6875 -9.492188 3.601562 -9.492188 C 1.824219 -9.492188 0.660156 -8.542969 0.660156 -6.984375 L 0.660156 -6.863281 C 0.660156 -5.628906 1.414062 -4.714844 3.457031 -4.441406 Z M 3.457031 -4.441406 "/></g></g></g><g fill="#0096c7" fill-opacity="1"><g transform="translate(42.999745, 108.587156)"><g><path d="M 7.933594 -7.859375 L 7.894531 -5.773438 L 7.894531 0 L 8.761719 0 L 8.761719 -9.359375 L 7.546875 -9.359375 L 4.824219 -1.488281 L 2.101562 -9.359375 L 0.886719 -9.359375 L 0.886719 0 L 1.753906 0 L 1.753906 -5.773438 L 1.703125 -7.859375 L 4.429688 0 L 5.207031 0 Z M 7.933594 -7.859375 "/></g></g></g><g fill="#0096c7" fill-opacity="1"><g transform="translate(53.631736, 108.587156)"><g><path d="M 3.046875 -9.457031 L 0.347656 0 L 1.285156 0 L 1.957031 -2.398438 L 5.375 -2.398438 L 6.046875 0 L 6.984375 0 L 4.285156 -9.457031 Z M 3.660156 -8.507812 L 5.148438 -3.179688 L 2.171875 -3.179688 Z M 3.660156 -8.507812 "/></g></g></g><g fill="#0096c7" fill-opacity="1"><g transform="translate(61.95973, 108.587156)"><g><path d="M 1.753906 -3.804688 L 3.480469 -3.804688 C 3.625 -3.804688 3.769531 -3.804688 3.910156 -3.816406 L 5.398438 0 L 6.347656 0 L 4.726562 -3.984375 C 5.617188 -4.273438 6.347656 -4.96875 6.347656 -6.457031 L 6.347656 -6.695312 C 6.347656 -8.855469 4.8125 -9.359375 3.480469 -9.359375 L 0.886719 -9.359375 L 0.886719 0 L 1.753906 0 Z M 1.753906 -4.585938 L 1.753906 -8.578125 L 3.503906 -8.578125 C 4.308594 -8.578125 5.460938 -8.28125 5.460938 -6.671875 L 5.460938 -6.492188 C 5.460938 -4.882812 4.308594 -4.585938 3.503906 -4.585938 Z M 1.753906 -4.585938 "/></g></g></g><g fill="#0096c7" fill-opacity="1"><g transform="translate(69.963727, 108.587156)"><g><path d="M 3.515625 -8.578125 L 5.902344 -8.578125 L 5.902344 -9.359375 L 0.277344 -9.359375 L 0.277344 -8.578125 L 2.652344 -8.578125 L 2.652344 0 L 3.515625 0 Z M 3.515625 -8.578125 "/></g></g></g><g fill="#0096c7" fill-opacity="1"><g transform="translate(77.139722, 108.587156)"><g/></g></g><g fill="#0096c7" fill-opacity="1"><g transform="translate(80.535724, 108.587156)"><g><path d="M 5.914062 -9.359375 L 5.914062 -5.160156 L 1.753906 -5.160156 L 1.753906 -9.359375 L 0.886719 -9.359375 L 0.886719 0 L 1.753906 0 L 1.753906 -4.390625 L 5.914062 -4.390625 L 5.914062 0 L 6.78125 0 L 6.78125 -9.359375 Z M 5.914062 -9.359375 "/></g></g></g><g fill="#0096c7" fill-opacity="1"><g transform="translate(89.19972, 108.587156)"><g><path d="M 3.886719 0.132812 C 6.035156 0.132812 7.105469 -1.199219 7.105469 -4.441406 L 7.105469 -4.921875 C 7.105469 -8.160156 6.035156 -9.492188 3.886719 -9.492188 C 1.753906 -9.492188 0.683594 -8.160156 0.683594 -4.921875 L 0.683594 -4.441406 C 0.683594 -1.199219 1.753906 0.132812 3.886719 0.132812 Z M 3.851562 -0.648438 C 2.28125 -0.648438 1.570312 -1.777344 1.570312 -4.441406 L 1.570312 -4.921875 C 1.570312 -7.585938 2.28125 -8.710938 3.851562 -8.710938 L 3.9375 -8.710938 C 5.507812 -8.710938 6.214844 -7.585938 6.214844 -4.921875 L 6.214844 -4.441406 C 6.214844 -1.777344 5.507812 -0.648438 3.9375 -0.648438 Z M 3.851562 -0.648438 "/></g></g></g><g fill="#0096c7" fill-opacity="1"><g transform="translate(97.983715, 108.587156)"><g><path d="M 7.933594 -7.859375 L 7.894531 -5.773438 L 7.894531 0 L 8.761719 0 L 8.761719 -9.359375 L 7.546875 -9.359375 L 4.824219 -1.488281 L 2.101562 -9.359375 L 0.886719 -9.359375 L 0.886719 0 L 1.753906 0 L 1.753906 -5.773438 L 1.703125 -7.859375 L 4.429688 0 L 5.207031 0 Z M 7.933594 -7.859375 "/></g></g></g><g fill="#0096c7" fill-opacity="1"><g transform="translate(108.615706, 108.587156)"><g><path d="M 0.886719 -9.359375 L 0.886719 0 L 6.109375 0 L 6.109375 -0.78125 L 1.753906 -0.78125 L 1.753906 -4.390625 L 5.507812 -4.390625 L 5.507812 -5.160156 L 1.753906 -5.160156 L 1.753906 -8.578125 L 6.109375 -8.578125 L 6.109375 -9.359375 Z M 0.886719 -9.359375 "/></g></g></g><g fill="#03045e" fill-opacity="1"><g transform="translate(68.011122, 120.061065)"><g><path d="M 2.671875 -4.679688 L 2.671875 -2.808594 L 1.308594 -2.808594 L 1.308594 -4.679688 L 0.335938 -4.679688 L 0.335938 0 L 1.308594 0 L 1.308594 -1.96875 L 2.671875 -1.96875 L 2.671875 0 L 3.640625 0 L 3.640625 -4.679688 Z M 2.671875 -4.679688 "/></g></g></g><g fill="#03045e" fill-opacity="1"><g transform="translate(73.105119, 120.061065)"><g><path d="M 1.984375 0.078125 C 3.257812 0.078125 3.671875 -0.460938 3.671875 -1.480469 L 3.671875 -4.679688 L 2.699219 -4.679688 L 2.699219 -1.511719 C 2.699219 -1.015625 2.539062 -0.761719 1.984375 -0.761719 C 1.433594 -0.761719 1.277344 -1.015625 1.277344 -1.511719 L 1.277344 -4.679688 L 0.304688 -4.679688 L 0.304688 -1.480469 C 0.304688 -0.460938 0.714844 0.078125 1.984375 0.078125 Z M 1.984375 0.078125 "/></g></g></g><g fill="#03045e" fill-opacity="1"><g transform="translate(78.199117, 120.061065)"><g><path d="M 0.335938 -4.679688 L 0.335938 0 L 1.921875 0 C 2.675781 0 3.496094 -0.203125 3.496094 -1.34375 L 3.496094 -1.464844 C 3.496094 -1.96875 3.257812 -2.257812 2.921875 -2.417969 C 3.191406 -2.574219 3.378906 -2.839844 3.378906 -3.265625 L 3.378906 -3.382812 C 3.378906 -4.480469 2.605469 -4.679688 1.871094 -4.679688 Z M 1.949219 -1.96875 C 2.21875 -1.96875 2.515625 -1.859375 2.515625 -1.433594 L 2.515625 -1.378906 C 2.515625 -0.953125 2.21875 -0.839844 1.949219 -0.839844 L 1.308594 -0.839844 L 1.308594 -1.96875 Z M 1.867188 -3.839844 C 2.117188 -3.839844 2.394531 -3.75 2.394531 -3.367188 L 2.394531 -3.289062 C 2.394531 -2.902344 2.117188 -2.8125 1.867188 -2.8125 L 1.308594 -2.8125 L 1.308594 -3.839844 Z M 1.867188 -3.839844 "/></g></g></g></svg>